<svg width="48" height="48" viewBox="0 0 48 48" fill="none" xmlns="http://www.w3.org/2000/svg">
  <rect id="bg" width="48" height="48" fill="#ffcd2a" />
  <path id="vs" d="M12.04 35.5L6.248 17.9H10.344L13.704 28.588C13.896 29.228 14.0773 29.8893 14.248 30.572C14.44 31.2547 14.5787 31.7987 14.664 32.204C14.7707 31.7987 14.9093 31.2547 15.08 30.572C15.2507 29.8893 15.4213 29.2387 15.592 28.62L18.888 17.9H22.952L17.192 35.5H12.04ZM32.4755 35.788C31.1315 35.788 29.9582 35.5747 28.9555 35.148C27.9528 34.7213 27.1635 34.1347 26.5875 33.388C26.0328 32.62 25.7342 31.724 25.6915 30.7H29.6915C29.7342 31.2547 30.0008 31.7027 30.4915 32.044C31.0035 32.3853 31.6648 32.556 32.4755 32.556H33.8835C34.8648 32.556 35.6008 32.364 36.0915 31.98C36.5822 31.596 36.8275 31.0733 36.8275 30.412C36.8275 29.7933 36.6035 29.3133 36.1555 28.972C35.7288 28.6093 35.0568 28.3747 34.1395 28.268L31.9635 27.948C29.9582 27.6707 28.4862 27.1373 27.5475 26.348C26.6088 25.5587 26.1395 24.3747 26.1395 22.796C26.1395 21.1533 26.6942 19.884 27.8035 18.988C28.9128 18.0707 30.5448 17.612 32.6995 17.612H33.9155C35.8782 17.612 37.4462 18.0493 38.6195 18.924C39.7928 19.7987 40.4222 20.972 40.5075 22.444H36.5075C36.4435 21.9747 36.1768 21.5907 35.7075 21.292C35.2595 20.9933 34.6622 20.844 33.9155 20.844H32.6995C31.7822 20.844 31.1102 21.0147 30.6835 21.356C30.2782 21.676 30.0755 22.156 30.0755 22.796C30.0755 23.3933 30.2568 23.8413 30.6195 24.14C30.9822 24.4173 31.5688 24.62 32.3795 24.748L34.6515 25.068C36.7422 25.3667 38.2782 25.932 39.2595 26.764C40.2622 27.5747 40.7635 28.78 40.7635 30.38C40.7635 32.0867 40.1768 33.42 39.0035 34.38C37.8515 35.3187 36.1448 35.788 33.8835 35.788H32.4755Z" fill="#10100E" />
</svg>
